<?xml version="1.0" encoding="UTF-8" standalone="no"?>
<!-- Created with Inkscape (http://www.inkscape.org/) -->

<svg
   version="1.1"
   id="svg1"
   width="1672"
   height="941"
   viewBox="0 0 1672 941"
   sodipodi:docname="favicon.svg"
   inkscape:version="1.4.3 (0d15f75, 2025-12-25)"
   xmlns:inkscape="http://www.inkscape.org/namespaces/inkscape"
   xmlns:sodipodi="http://sodipodi.sourceforge.net/DTD/sodipodi-0.dtd"
   xmlns="http://www.w3.org/2000/svg"
   xmlns:svg="http://www.w3.org/2000/svg">
  <defs
     id="defs1" />
  <sodipodi:namedview
     id="namedview1"
     pagecolor="#ffffff"
     bordercolor="#000000"
     borderopacity="0.25"
     inkscape:showpageshadow="2"
     inkscape:pageopacity="0.0"
     inkscape:pagecheckerboard="0"
     inkscape:deskcolor="#d1d1d1"
     inkscape:zoom="0.8639745"
     inkscape:cx="835.67282"
     inkscape:cy="470.5"
     inkscape:window-width="1920"
     inkscape:window-height="1094"
     inkscape:window-x="-11"
     inkscape:window-y="-11"
     inkscape:window-maximized="1"
     inkscape:current-layer="g1" />
  <g
     inkscape:groupmode="layer"
     inkscape:label="Image"
     id="g1">
    <path
       style="fill:#ff0000"
       d="m 1044.2507,918.43321 c -7.836,-2.07773 -12.5502,-4.83051 -17.0744,-9.97024 -10.9315,-12.41882 -6.3522,-30.37112 9.8237,-38.51214 6.3696,-3.20572 21.9972,-3.98744 28.6814,-1.4347 8.4347,3.22123 15.3186,12.36614 15.3186,20.34989 0,2.11247 -0.2167,2.13398 -21.5,2.13398 -21.5,0 -21.5,0 -21.5,3.53984 0,4.37462 3.0667,10.58083 6.6026,13.36224 6.6689,5.24569 17.7765,5.22389 27.3765,-0.0537 5.7655,-3.16959 6.0682,-3.22819 7.7602,-1.50205 1.6849,1.71885 1.5934,1.93797 -2.1233,5.08734 -7.5377,6.38708 -23.2466,9.68258 -33.3653,6.99957 z m 19.6346,-33.34119 c 1.8701,-1.18432 0.7961,-5.12878 -2.4453,-8.98094 -2.731,-3.2456 -7.6523,-4.77658 -11.9151,-3.70669 -5.1523,1.29316 -12.6534,9.9607 -10.973,12.67953 0.7228,1.16962 23.4879,1.1769 25.3334,0.008 z m 249.3317,33.83235 c -11.3159,-1.96505 -17.4273,-7.90205 -13.8128,-13.41847 1.3363,-2.03951 2.4524,-2.5059 5.9964,-2.5059 4.6933,0 6.0596,1.00108 7.1171,5.21458 1.0034,3.99794 2.8918,5.05371 9.2536,5.17359 7.3057,0.13767 12.411,-2.32447 16.1184,-7.7735 3.0513,-4.48476 6.1103,-12.62723 6.1103,-16.26467 0,-2.29373 0,-2.29373 -4.5256,0.11255 -10.2999,5.47651 -22.3424,5.40957 -32.6732,-0.18163 -5.6842,-3.07638 -8.1554,-5.67984 -9.6627,-10.18014 -3.5933,-10.72829 1.5529,-20.85669 13.3615,-26.29717 4.2609,-1.96307 6.6294,-2.30361 16.0224,-2.30361 10.4389,0 11.3755,0.17388 17.6936,3.2849 8.0491,3.96336 12.2494,8.86966 14.989,17.50843 4.4667,14.08446 -1.1678,32.59641 -12.3973,40.73105 -8.3579,6.05438 -22.148,8.88707 -33.5907,6.89999 z m 22.7568,-34.91098 c 2.1417,-1.09264 4.5988,-2.99277 5.4601,-4.22251 3.5467,-5.0636 0.6704,-17.0202 -5.1005,-21.20229 -3.3258,-2.41016 -11.3489,-3.23903 -15.3421,-1.585 -6.3738,2.64011 -9.9686,9.97317 -8.5628,17.46697 0.7271,3.87566 4.8121,9.27503 7.9899,10.56059 3.8303,1.54949 11.5078,1.04717 15.5554,-1.01776 z m 84.1919,34.49109 c -7.1781,-1.60152 -14.0462,-5.26581 -17.0663,-9.10522 -6.4256,-8.1689 -1.7184,-19.93742 9.8428,-24.60801 3.4421,-1.3906 3.4421,-1.3906 -0.017,-3.52852 -6.6892,-4.13415 -8.4251,-6.83189 -8.4251,-13.09329 0,-7.32233 2.6052,-11.09532 10.2408,-14.83105 7.4576,-3.64866 21.5332,-4.48492 30.676,-1.8225 15.9681,4.65 19.4224,19.21568 6.0928,25.69169 -4.8939,2.37767 -5.5058,3.34147 -2.6888,4.23554 1.0014,0.31784 3.9054,1.89994 6.4533,3.51578 11.535,7.31523 11.1894,20.74103 -0.7333,28.49265 -8.1437,5.29468 -23.3037,7.5231 -34.3751,5.05293 z m 21.4915,-7.14611 c 7.2282,-3.42998 8.9939,-11.60044 3.5568,-16.45843 C 1442.4181,892.4018 1428.4754,887 1424.8233,887 c -2.2471,0 -7.5512,4.57315 -9.3592,8.06946 -0.8053,1.55717 -1.4624,4.09107 -1.4604,5.63088 0,3.48781 3.1417,8.76668 6.1928,10.42099 5.7694,3.12822 15.1497,3.23183 21.4607,0.23704 z m 1.1289,-37.29827 c 4.7958,-4.79581 5.0344,-11.22752 0.5657,-15.25053 -2.7384,-2.46536 -10.3116,-4.22729 -14.662,-3.41116 -4.7168,0.88488 -10.6898,5.99718 -10.6898,9.14942 0,3.57857 3.8708,7.24846 10.5,9.95502 7.9539,3.24743 10.6804,3.16293 14.2861,-0.44275 z m 84.0247,44.46959 c -6.3151,-1.73925 -10.9513,-4.74637 -15.7865,-10.23942 -5.1894,-5.89544 -7.0243,-12.14769 -7.0243,-23.93426 0,-15.55114 5.3293,-25.4345 16.7198,-31.00733 7.8955,-3.86295 21.1798,-4.51852 29.3281,-1.44732 8.8365,3.33064 13.4462,7.3265 17.1706,14.88428 2.9286,5.94276 3.3172,7.73732 3.6133,16.68662 0.3819,11.54177 -1.735,19.07001 -7.0715,25.14792 -7.9942,9.10491 -24.1443,13.43622 -36.9495,9.90951 z m 18.7273,-7.60197 c 7.1686,-4.31546 11.0133,-19.90552 8.5625,-34.72072 -2.3906,-14.45162 -5.8819,-19.09522 -15.0167,-19.97296 -13.1797,-1.26641 -20.0375,10.74544 -18.8706,33.05338 0.7139,13.64827 4.771,21.477 12.2554,23.64805 3.8946,1.12975 9.2153,0.31236 13.0694,-2.00775 z M 661.5,917.92295 c -1.65,-0.49783 -5.05061,-0.6377 -7.55692,-0.31083 -4.55691,0.59431 -4.55691,0.59431 -6.46475,-7.06716 -1.65952,-6.66424 -1.71719,-7.78206 -0.44309,-8.5879 2.7737,-1.75432 4.70599,-0.94649 7.3719,3.08198 3.42276,5.17215 7.63028,7.69678 14.19412,8.51688 6.41125,0.80103 11.87359,-0.8248 14.07888,-4.1905 3.18518,-4.86121 -0.79424,-8.21195 -14.12414,-11.89276 -9.38503,-2.5915 -18.48699,-7.43852 -20.20419,-10.75923 -3.43025,-6.63337 1.76544,-15.93395 10.3358,-18.50169 5.08551,-1.52366 19.96509,-1.57737 24.23893,-0.0875 2.38758,0.83231 3.51691,0.83231 4.34922,0 0.61833,-0.61833 2.09712,-1.12424 3.28619,-1.12424 1.8277,0 2.33789,0.8761 3.3,5.66678 1.80489,8.98724 1.59492,10.33322 -1.61195,10.33319 -1.9596,-2e-5 -3.57691,-1.03639 -5.62702,-3.60576 -3.15021,-3.94812 -9.54367,-7.33782 -13.9051,-7.37225 -4.76799,-0.0376 -9.57443,2.55831 -10.33304,5.58086 -0.88531,3.52736 1.40739,5.45972 9.26988,7.81294 11.53439,3.45221 21.11375,7.73314 23.96592,10.71016 2.39541,2.50027 2.87936,3.85396 2.87936,8.0541 0,4.5876 -0.34116,5.34361 -3.73544,8.27773 -5.19353,4.48945 -12.29131,6.56024 -22.12939,6.4563 -4.47435,-0.0473 -9.48517,-0.49327 -11.13517,-0.9911 z m 83.75,0.28324 c -6.95244,-0.28175 -7.25,-0.39462 -7.25,-2.75 0,-1.97005 0.50782,-2.45619 2.56574,-2.45619 1.41116,0 3.43616,-0.46583 4.5,-1.03518 C 746.85759,911.00585 747,909.72004 747,894.5 747,879.27996 746.85759,877.99415 745.06574,877.03518 744.0019,876.46583 741.9769,876 740.56574,876 738.56605,876 738,875.49993 738,873.73334 c 0,-2.0796 0.90828,-2.45557 11.00562,-4.55555 6.05309,-1.25888 11.45309,-2.01233 12,-1.67432 0.60907,0.37643 0.99438,8.90912 0.99438,22.02036 0,20.13983 0.11439,21.46702 1.93426,22.44099 1.06384,0.56935 3.31384,1.03518 5,1.03518 2.60346,0 3.06574,0.37698 3.06574,2.5 0,1.375 -0.3375,2.51308 -0.75,2.52907 -8.4069,0.32583 -20.32669,0.40703 -26,0.17712 z m 112.55012,-0.94346 C 856.22307,915.357 857.65907,913 860.39719,913 c 4.88602,0 5.60295,-2.02504 5.60126,-15.82143 -0.002,-18.39027 -2.75552,-22.79412 -13.63593,-21.81067 -6.52495,0.58978 -10.92361,2.86431 -13.403,6.93065 -1.6519,2.7092 -1.95026,5.04656 -1.94047,15.20145 0.006,6.6 0.39652,12.60744 0.867,13.34986 0.47048,0.74243 2.37609,1.66087 4.23469,2.041 2.45382,0.50186 3.37926,1.22762 3.37926,2.65014 0,1.85369 -0.87353,1.97377 -16.25,2.23377 C 813,918.04954 813,918.04954 813,915.52477 813,913.39982 813.46377,913 815.92857,913 821.49545,913 822,911.4614 822,894.48528 822,879.73404 821.91027,879.05056 819.77749,877.5567 818.55512,876.70052 816.53012,876 815.27749,876 813.57803,876 813,875.4253 813,873.73561 c 0,-2.07974 0.90164,-2.44867 11.05647,-4.52412 6.08106,-1.24285 11.48106,-1.99731 12,-1.67659 0.51894,0.32072 0.94353,2.3536 0.94353,4.51751 0,3.93438 0,3.93438 4.35208,0.61236 5.83372,-4.45298 11.94548,-6.03704 21.04058,-5.45335 8.12559,0.52147 12.55503,2.48894 16.00281,7.10815 1.90322,2.54987 2.13487,4.39031 2.4217,19.24035 0.29933,15.49698 0.43843,16.5057 2.47251,17.93043 1.18543,0.83031 3.1802,1.50965 4.43283,1.50965 1.35777,0 2.27749,0.60575 2.27749,1.5 0,0.825 0.003,1.8375 0.006,2.25 0.003,0.4125 -7.01142,0.975 -15.58801,1.25 -11.6822,0.37458 -15.85062,0.18964 -16.61766,-0.73727 z m 90.109,0.23896 c -5.78554,-1.85179 -13.63483,-8.68866 -16.03065,-13.96298 -5.91934,-13.03128 1.87921,-30.01373 16.08416,-35.02552 4.92844,-1.73886 19.63818,-2.02958 25.155,-0.49716 12.9761,3.6044 16.24268,15.98397 4.21767,15.98397 -4.21088,0 -4.4291,-0.15664 -6.60598,-4.74178 -2.94153,-6.19572 -6.38333,-7.97806 -12.09914,-6.26557 -11.07337,3.31767 -15.77208,17.96824 -9.62633,30.0149 2.62332,5.14212 7.19086,8.20866 13.06773,8.77335 6.72676,0.64636 10.99412,-0.3544 16.06323,-3.76708 4.31126,-2.90246 4.38912,-2.91496 6.30212,-1.01159 1.88457,1.87509 1.88704,1.98231 0.0913,3.96657 -1.01509,1.12166 -4.34671,3.26305 -7.4036,4.75865 -4.67361,2.28658 -7.0749,2.76098 -15.09131,2.98145 -6.30567,0.17343 -11.08764,-0.2353 -14.12421,-1.20721 z m 260.64668,-0.41145 c -1.375,-2.22467 0.8078,-3.90522 5.8983,-4.54124 9.3664,-1.17025 9.0026,-0.15688 9.3497,-26.04957 0.2185,-16.30087 -0.026,-23.06283 -0.8725,-24.08215 -0.79,-0.95193 -3.2702,-1.41728 -7.5537,-1.41728 -6.1047,0 -6.3776,-0.10503 -6.3776,-2.45469 0,-2.05985 0.6032,-2.55421 3.75,-3.07346 2.0625,-0.34032 8.2673,-1.71072 13.7885,-3.04531 5.5212,-1.3346 10.5837,-2.42654 11.25,-2.42654 0.9206,0 1.2115,6.9097 1.2115,28.77749 0,33.74823 -0.3115,32.59148 9.0386,33.56875 7.1721,0.74964 7.9614,1.11774 7.9614,3.71278 0,1.86611 -0.9042,1.94098 -23.441,1.94098 -12.9985,0 -23.6914,-0.40528 -24.0032,-0.90976 z M 749.27992,860.97991 c -2.45682,-0.98859 -3.80733,-4.74281 -2.82244,-7.84595 0.35528,-1.11937 2.16967,-2.51586 4.09376,-3.15087 7.15359,-2.3609 13.62112,1.80318 11.49326,7.39986 -1.53167,4.02861 -7.50716,5.71245 -12.76458,3.59696 z M 679,823.40379 c -12.8302,-1.81786 -24.55268,-5.73524 -32.16321,-10.74819 -5.04939,-3.32596 -7.22643,-5.65293 -10.90462,-11.6556 -4.72054,-7.70376 -7.37248,-13.89303 -6.37863,-14.88688 0.30941,-0.3094 12.77948,-0.57393 27.71126,-0.58784 27.1487,-0.0253 27.1487,-0.0253 27.86352,3.4588 0.9093,4.43191 6.3341,9.47951 12.04133,11.20405 6.94104,2.09736 21.53718,1.71496 26.26582,-0.68813 5.52614,-2.80838 8.13602,-6.56364 6.58102,-9.46918 -1.75187,-3.2734 -7.53308,-5.40769 -27.01649,-9.97389 -21.0256,-4.92763 -29.32647,-7.912 -38.17328,-13.72425 C 657.20534,761.32553 654,756.19404 654,749 c 0,-9.44124 8.55539,-19.57736 22.2254,-26.33184 14.02838,-6.93155 27.83196,-9.67258 48.63507,-9.65766 25.95896,0.0186 45.44053,5.56835 56.14385,15.99371 4.53373,4.41599 7.69875,10.72123 6.69488,13.33728 -0.31298,0.8156 -4.83542,1.70573 -12.84116,2.52744 -6.79692,0.69765 -15.36924,1.68754 -19.04959,2.19976 -12.37013,1.72164 -14.03773,1.43314 -16.30845,-2.82139 -3.01324,-5.64575 -9.72297,-8.61929 -19.41208,-8.60282 -8.33479,0.0142 -12.9722,1.72308 -15.61303,5.7535 -1.2566,1.91781 -1.32274,2.84185 -0.35538,4.96497 1.53911,3.37798 7.82728,5.73517 24.52807,9.19463 25.57843,5.2984 35.67867,8.93665 42.65098,15.36351 7.58068,6.98762 8.73401,17.73642 3.028,28.22024 -9.04503,16.6187 -35.32607,25.9579 -72.32656,25.70189 -7.425,-0.0514 -17.775,-0.69911 -23,-1.43943 z m 330.5,0.54832 c -7.99,-1.07027 -22.10866,-5.20568 -27.96531,-8.19112 -23.88926,-12.17761 -31.79509,-36.73547 -19.53484,-60.68103 7.8683,-15.36764 23.55408,-26.16163 47.50015,-32.68671 9.3024,-2.53483 11.3951,-2.72715 30,-2.75705 23.7528,-0.0382 33.086,1.65417 47.1991,8.55834 11.0235,5.39278 18.186,12.1985 22.468,21.34879 2.9705,6.34785 3.068,6.98544 2.6437,17.28403 -0.4025,9.76895 -0.7533,11.3432 -4.0591,18.21624 -8.4655,17.60045 -29.1602,32.02785 -53.234,37.1122 -10.5688,2.23212 -34.6044,3.1912 -45.0177,1.79631 z m 33.8786,-29.89332 c 10.0338,-4.85731 17.3131,-15.56735 18.3496,-26.99784 0.4363,-4.81163 0.094,-6.7689 -1.9709,-11.27996 -3.1845,-6.95591 -7.2844,-9.62532 -16.0389,-10.44283 -19.5452,-1.82515 -32.9742,10.14128 -34.4094,30.66184 -0.741,10.5951 4.1161,17.55356 14.0312,20.10149 5.2255,1.34282 15.1306,0.3331 20.0384,-2.0427 z m 255.4102,28.36462 c -23.0103,-7.40866 -30.9133,-28.67942 -15.8802,-42.74116 5.7098,-5.34085 10.1893,-7.75551 19.6035,-10.56722 8.3355,-2.48953 27.7527,-5.11623 37.7891,-5.11199 9.8167,0.004 32.5772,-2.93965 35.9343,-4.64767 3.7146,-1.88987 4.5821,-5.7779 2.0511,-9.19242 -2.6409,-3.56277 -7.2919,-5.03852 -16.0938,-5.10651 -12.2091,-0.0943 -17.8593,2.12919 -22.1928,8.73349 -1.5,2.28601 -1.5,2.28601 -25,0.62942 -12.925,-0.91112 -23.7053,-1.84597 -23.9561,-2.07744 -1.083,-0.99924 3.7917,-7.89953 8.9492,-12.66785 13.1612,-12.16808 30.3586,-16.691 63.3293,-16.65563 37.6602,0.0404 57.6566,7.2677 62.7421,22.67699 1.3286,4.02557 0.6244,13.05734 -1.622,20.80458 -8.17,28.17571 -10.6082,39.18145 -10.1908,46 0.2357,3.85 0.7736,7.7875 1.1954,8.75 0.7184,1.63943 -0.7534,1.75 -23.2931,1.75 -24.06,0 -24.06,0 -25.1014,-3.75 -0.5728,-2.0625 -1.044,-4.22167 -1.047,-4.79815 -0,-0.57648 -3.4432,0.62861 -7.6447,2.67797 -12.6909,6.19029 -20.7628,7.87744 -37.429,7.82328 -12.5499,-0.0408 -15.4375,-0.37067 -22.1431,-2.52969 z m 55.6725,-21.30327 c 7.6859,-3.39982 10.6016,-6.07378 13.6505,-12.5184 4.3861,-9.27142 4.2775,-9.46957 -4.3618,-7.95345 -3.9875,0.69978 -8.7315,1.29019 -10.5422,1.31202 -5.591,0.0674 -18.5182,3.104 -22.3548,5.25116 -3.4666,1.94007 -5.853,5.29353 -5.853,8.2248 0,2.26586 3.568,5.90027 7.1229,7.25549 4.7357,1.80538 16.5895,0.97141 22.3384,-1.57162 z M 782,822.57997 c 0,-0.23101 1.53168,-5.74351 3.40374,-12.25 3.59705,-12.50184 8.36232,-29.71633 14.62428,-52.82997 2.08608,-7.7 6.11203,-22.55 8.94654,-33 2.83451,-10.45 6.0741,-22.4875 7.1991,-26.75 2.04544,-7.75 2.04544,-7.75 9.18589,-7.96039 18.51388,-0.54549 44.63589,-0.19906 44.63804,0.592 0.002,0.85905 -3.91663,15.90812 -9.91909,38.08985 -1.63291,6.0343 -2.83334,11.10703 -2.66763,11.27274 0.16571,0.16571 3.40356,-1.09213 7.19521,-2.7952 16.94139,-7.60946 37.50137,-11.19431 52.15496,-9.09377 15.8881,2.27751 25.94005,8.86885 28.86401,18.92693 2.01629,6.93578 1.42195,10.28881 -7.7492,43.71784 -1.05624,3.85 -3.31297,12.7375 -5.01497,19.75 -3.09454,12.75 -3.09454,12.75 -28.5451,12.75 -25.45056,0 -25.45056,0 -24.73136,-2.25 1.42972,-4.47283 6.63029,-22.36386 7.92104,-27.25 0.72646,-2.75 2.78935,-10.06222 4.5842,-16.24937 3.74587,-12.9126 3.46308,-17.03692 -1.41621,-20.6548 -3.93855,-2.92035 -20.22813,-3.04725 -25.9732,-0.20233 -5.35882,2.65363 -11.87286,9.29972 -14.40697,14.699 -2.04224,4.35127 -12.45631,39.14873 -14.7117,49.1575 C 834.9619,823 834.9619,823 808.48095,823 793.91643,823 782,822.81099 782,822.57997 Z M 1112.3521,821.25 c 0.2679,-0.9625 1.418,-4.9 2.5559,-8.75 2.4909,-8.42736 12.1118,-43.36591 18.5872,-67.5 2.5825,-9.625 5.0207,-17.84569 5.4183,-18.26819 0.3976,-0.42251 11.538,-0.64751 24.7565,-0.5 24.0336,0.26819 24.0336,0.26819 22.5841,6.0872 -0.7972,3.20045 -1.246,6.02245 -0.9973,6.27111 0.2486,0.24865 3.1051,-1.29909 6.3476,-3.43942 6.7388,-4.44809 14.3322,-7.44608 25.8612,-10.21031 18.9716,-4.54873 40.6759,-0.37691 49.3323,9.48226 7.0648,8.04635 6.7246,16.47014 -1.9595,48.52093 -3.3614,12.40603 -7.1305,26.38142 -8.3758,31.05642 -2.2642,8.5 -2.2642,8.5 -27.9769,8.76711 -24.2336,0.25175 -25.6737,0.16546 -25.0331,-1.5 0.8503,-2.2108 13.8366,-47.98772 15.5367,-54.76711 2.3164,-9.23699 -2.5345,-15.73508 -11.7399,-15.72617 -10.6941,0.0103 -18.7189,4.44568 -24.9077,13.76671 -3.0277,4.56007 -4.8921,9.93307 -10.4974,30.25217 -3.7487,13.58901 -6.8222,25.49479 -6.83,26.45729 -0.013,1.6224 -1.9515,1.75 -26.5817,1.75 -24.8211,0 -26.5354,-0.11503 -26.0805,-1.75 z m 312.0158,0 c 1.7524,-6.10012 4.9173,-17.63604 8.1619,-29.75 2.0623,-7.7 5.6589,-20.975 7.9923,-29.5 2.3335,-8.525 5.4975,-20.1125 7.0313,-25.75 2.7886,-10.25 2.7886,-10.25 27.185,-10.25 22.7615,0 24.3623,0.11728 23.8885,1.75 -1.7926,6.17687 -2.6903,10.51991 -2.2629,10.94733 0.2725,0.2725 2.4396,-0.83634 4.8157,-2.46409 20.4732,-14.02485 50.7684,-17.38759 69.7932,-7.74698 6.0744,3.07815 9.5788,7.26503 11.5024,13.74266 2.0451,6.88647 1.9502,8.76142 -1.0567,20.87317 -2.0048,8.07532 -13.0125,47.99871 -16.0326,58.14791 -0.4779,1.60595 -2.5731,1.75 -25.4534,1.75 -13.7129,0 -24.9326,-0.26829 -24.9326,-0.59621 0,-0.32791 1.9892,-7.64041 4.4204,-16.25 2.4312,-8.60958 5.3857,-19.47879 6.5656,-24.15379 1.1799,-4.675 2.8271,-10.525 3.6604,-13 4.2335,-12.57387 -3.8662,-20.88456 -17.402,-17.85538 -11.9543,2.67525 -20.351,11.7624 -24.722,26.75478 -1.3791,4.73033 -3.6104,12.2006 -4.9585,16.6006 -1.3481,4.4 -3.1787,10.925 -4.068,14.5 -3.9231,15.77019 -0.2434,14 -29.1018,14 -23.8381,0 -25.4956,-0.11591 -25.0262,-1.75 z M 219.75,700.27153 C 216,699.87927 216,699.87927 216,570.43963 216,441 216,441 220,441 c 4,0 4,0 4,130 0,71.5 -0.1125,129.92435 -0.25,129.8319 -0.1375,-0.0925 -1.9375,-0.34462 -4,-0.56037 z m 24.75352,-0.10134 C 244.22659,699.89325 244,640.34167 244,567.83333 244,436 244,436 196.5,436 149,436 149,436 149,422 c 0,-14 0,-14 47.5,-14 47.5,0 47.5,0 47.5,-37.44098 0,-23.39094 0.36802,-37.66843 0.98071,-38.0471 0.53939,-0.33336 6.26746,-6.54741 12.72904,-13.80901 11.25527,-12.6488 25.60655,-28.35036 62.79471,-68.70291 18.46067,-20.03151 84.19127,-92.2257 91.4567,-100.45004 2.45364,-2.77748 9.66645,-10.67496 16.02848,-17.54996 6.36202,-6.875 17.698,-19.25 25.19106,-27.5 29.84434,-32.859191 23.82171,-31.782517 47.48376,-8.488733 C 512.12401,107.29246 561.1,155.67727 609.5,203.53306 c 140.02431,138.44987 236.45987,233.57447 243.62735,240.31543 6.62734,6.23297 6.62734,6.23297 90,-77.80221 83.37265,-84.03519 83.37265,-84.03519 125.19095,-84.04073 41.8184,-0.006 41.8184,-0.006 -45,86.82162 -47.75005,47.75494 -94.34118,94.70628 -103.53581,104.33629 -16.71751,17.50913 -16.71751,17.50913 4.5,38.49704 150.32381,148.69706 189.60571,187.78463 189.16311,188.22721 -0.2875,0.28752 -19.5915,0.58964 -42.8977,0.67139 -42.3749,0.14863 -42.3749,0.14863 -52.7114,-10.29799 -5.6851,-5.74564 -43.67926,-43.22217 -84.43153,-83.28119 -74.09503,-72.83458 -74.09503,-72.83458 -126.02587,-20.65725 -28.56196,28.69753 -60.0192,60.42393 -69.90497,70.50311 -19.1467,19.52128 -23.52942,22.81272 -39.68451,29.80314 -25.78193,11.15603 -47.02297,15.12639 -75.24807,14.06534 -13.29684,-0.49987 -18.06786,-1.12265 -27.77571,-3.62572 -47.94039,-12.36091 -79.66147,-37.62255 -98.80244,-78.6831 -11.2867,-24.21181 -16.54288,-57.87753 -12.91088,-82.69389 1.3509,-9.23031 4.64496,-23.0468 6.58601,-27.62416 0.83202,-1.96206 2.20764,-5.59239 3.05694,-8.06739 0.8493,-2.475 3.24339,-7.875 5.3202,-12 22.56206,-44.81317 67.15229,-75.36049 116.62755,-79.89773 38.52317,-3.53286 81.41983,8.602 112.3498,31.78216 9.37632,7.027 30.18605,27.0492 29.79695,28.66932 -0.25109,1.04552 -54.4591,56.44696 -136.01755,139.0121 C 607.69759,620.80206 597,632.10915 597,632.6927 c 0,1.29001 7.7234,4.70066 15.66109,6.91595 3.27305,0.91345 11.45021,1.84915 18.60809,2.12929 15.94104,0.62388 27.0523,-1.64594 40.92459,-8.36012 10.59518,-5.12806 1.01413,4.08943 93.27003,-89.73076 50.9638,-51.82793 50.9638,-51.82793 44.5,-57.92181 -3.55509,-3.35164 -16.8138,-16.26803 -29.4638,-28.70311 -12.65,-12.43507 -38.3,-37.425 -57,-55.53317 -18.7,-18.10817 -44.8,-43.53271 -58,-56.49897 -32.49328,-31.91789 -80.15122,-78.41398 -122,-119.02576 -8.8,-8.53988 -26.52677,-25.78999 -39.39283,-38.33359 -23.39282,-22.80654 -23.39282,-22.80654 -26.12659,-19.96859 -5.18816,5.38586 -75.50399,81.8942 -84.41852,91.85299 -4.91586,5.49172 -17.35279,19.20995 -27.63761,30.48495 -10.28483,11.275 -25.75928,28.375 -34.38767,38 -15.08599,16.82847 -15.66632,17.63431 -15.12339,21 0.31053,1.925 0.56955,15.9875 0.5756,31.25 C 317,408 317,408 349,408 c 32,0 32,0 32,14 0,14 0,14 -31.99632,14 -31.99633,0 -31.99633,0 -32.25,132.25 C 316.5,700.5 316.5,700.5 280.75352,700.58686 c -19.66056,0.0478 -35.97306,-0.13973 -36.25,-0.41667 z M 580.90481,562.75627 c 16.27736,-16.63405 42.50569,-43.29655 58.28518,-59.25 15.7795,-15.95345 28.33547,-29.3653 27.90215,-29.80412 -1.55536,-1.57512 -15.65822,-5.80036 -24.53812,-7.35167 -36.07183,-6.30169 -73.78635,13.32745 -90.5909,47.14952 -6.66172,13.40787 -8.33811,21.43337 -8.35535,40 -0.009,9.81082 0.47005,17.74071 1.23872,20.5 3.65936,13.13615 5.49691,19 5.954,19 0.28002,0 13.82697,-13.60968 30.10432,-30.24373 z M 399,503.64126 c 0,-196.89927 0,-196.89927 19.26824,-217.02026 10.59753,-11.06655 26.34753,-27.63411 35,-36.8168 C 469,233.1084 469,233.1084 469,466.85503 c 0,233.74663 0,233.74663 -35,233.71606 -35,-0.0306 -35,-0.0306 -35,-196.92983 z m 637.0233,92.92744 C 978.5611,539.13278 931.38727,491.66182 931.19256,491.07768 930.99785,490.49354 978.20638,442.531 1036.1004,384.49425 1141.3623,278.9729 1141.3623,278.9729 1144.1402,281.63434 c 2.778,2.66145 2.778,2.66145 -100.1626,106.09637 C 941.03708,491.16562 941.03708,491.16562 1042.2685,592.04568 1143.5,692.92574 1143.5,692.92574 1367.75,692.96287 1592,693 1592,693 1592,697 c 0,4 0,4 -225.75,3.99882 -225.75,-0.001 -225.75,-0.001 -330.2267,-104.43012 z M 813.96864,380.83456 C 775.00397,343.0118 645.41301,214.95105 519.69942,90.040086 478.89884,49.5 478.89884,49.5 475.19942,53.519174 436.26523,95.818582 371.95036,166.17682 296.96633,248.5 c -9.01741,9.9 -29.12377,31.82092 -44.68081,48.71316 C 224,327.92632 224,327.92632 223.99434,364.71316 c -0.006,36.78684 -0.006,36.78684 -4,36.93693 C 216,401.80019 216,401.80019 216,363.38604 c 0,-42.97774 -5.66112,-32.44945 49.97474,-92.94077 9.63889,-10.4801 30.83325,-33.6551 47.09857,-51.5 73.99144,-81.17698 84.6381,-92.83799 104.89268,-114.88626 11.84371,-12.892538 26.68375,-29.092538 32.97787,-35.999996 6.29412,-6.907458 15.18709,-16.591688 19.76216,-21.520512 8.31831,-8.961497 8.31831,-8.961497 88.05615,70.521468 135.89875,135.46439 280.07906,277.90083 296.37233,292.78769 3.6345,3.32078 3.6345,3.32078 69.5,-62.82318 36.22602,-36.37918 66.70931,-66.61304 67.74062,-67.18637 1.50507,-0.83669 2.38481,-0.53273 4.45775,1.54021 2.58262,2.58262 2.58262,2.58262 -67.37512,72.58942 -38.47676,38.50373 -70.19686,70.01252 -70.48911,70.01952 -0.29224,0.007 -20.54224,-19.41171 -45,-43.1527 z"
       id="path1" />
  </g>
</svg>
